<?xml version="1.0" standalone="no"?>
<!DOCTYPE svg PUBLIC "-//W3C//DTD SVG 20010904//EN"
 "http://www.w3.org/TR/2001/REC-SVG-20010904/DTD/svg10.dtd">
<svg version="1.0" xmlns="http://www.w3.org/2000/svg"
 width="544.000000pt" height="544.000000pt" viewBox="0 0 544.000000 544.000000"
 preserveAspectRatio="xMidYMid meet">
<metadata>
Created by potrace 1.11, written by Peter Selinger 2001-2013
</metadata>
<g transform="translate(0.000000,544.000000) scale(0.100000,-0.100000)"
fill="#000000" stroke="none">
<path d="M80 5434 c0 -3 26 -32 58 -63 81 -79 101 -115 328 -586 21 -44 39
-82 39 -85 1 -3 25 -54 54 -115 80 -166 205 -427 281 -590 18 -38 62 -131 98
-205 67 -139 136 -285 202 -425 21 -44 65 -136 97 -205 33 -69 63 -136 67
-148 4 -12 12 -22 17 -22 5 0 9 -6 9 -13 0 -8 15 -45 34 -83 18 -38 48 -100
66 -139 61 -131 201 -420 207 -425 9 -10 42 41 49 76 4 23 1 46 -11 72 -10 20
-49 102 -88 182 -38 80 -86 181 -107 225 -62 132 -126 267 -191 402 -33 70
-74 155 -89 188 -16 33 -53 112 -83 175 -30 63 -78 165 -107 225 -29 61 -71
151 -95 200 -23 50 -63 133 -88 185 -24 52 -65 138 -90 190 -72 151 -118 134
363 134 228 1 421 5 428 9 14 9 37 57 176 362 67 145 76 166 76 171 0 4 25 43
56 88 57 81 168 196 190 196 7 0 14 7 18 15 5 13 -108 15 -979 15 -542 0 -985
-3 -985 -6z"/>
<path d="M3270 5425 c0 -6 12 -18 28 -27 76 -45 111 -104 107 -183 -1 -28 -9
-65 -18 -81 -9 -16 -24 -47 -33 -69 -10 -22 -22 -43 -27 -46 -5 -3 -8 -8 -6
-10 1 -2 -24 -58 -56 -124 -33 -66 -60 -122 -60 -125 -1 -3 -27 -57 -57 -120
-54 -112 -86 -181 -153 -325 -18 -38 -54 -115 -80 -170 -26 -55 -60 -127 -75
-160 -15 -33 -50 -107 -77 -165 -28 -58 -60 -127 -73 -155 -12 -27 -39 -86
-60 -130 -100 -211 -129 -274 -150 -320 -13 -27 -43 -93 -68 -145 -47 -102
-107 -228 -152 -325 -15 -33 -47 -100 -70 -150 -23 -49 -58 -124 -77 -165 -48
-103 -97 -207 -151 -320 -43 -92 -75 -161 -132 -285 -15 -33 -49 -105 -75
-160 -26 -55 -65 -138 -87 -185 -21 -47 -48 -101 -58 -121 -11 -20 -17 -39
-13 -43 3 -3 1 -6 -5 -6 -7 0 -12 -4 -12 -9 0 -5 -40 -94 -89 -198 -48 -103
-98 -210 -111 -238 -13 -27 -40 -86 -61 -130 -20 -44 -56 -120 -79 -169 -22
-49 -59 -128 -82 -175 -22 -47 -52 -110 -66 -140 -34 -74 -125 -164 -209 -208
-85 -44 -104 -43 1002 -43 575 0 1045 2 1045 5 0 2 -21 16 -47 31 -73 41 -133
93 -149 128 -15 30 -14 35 34 136 27 58 60 128 72 155 12 28 51 110 86 184 35
73 64 135 64 136 0 2 30 66 66 142 36 76 78 165 94 198 15 33 51 108 79 167
28 59 51 109 51 111 0 2 31 69 69 148 38 79 83 176 101 214 18 39 52 111 75
160 23 50 57 122 75 160 18 39 48 104 68 145 41 85 37 78 47 108 4 12 11 22
16 22 5 0 9 7 9 15 0 8 9 31 19 52 42 84 85 178 83 186 -1 4 2 7 8 7 5 0 10 5
10 11 0 5 21 54 46 107 26 53 59 124 74 157 15 33 49 105 75 160 26 55 61 129
77 165 37 81 73 156 160 338 37 79 68 146 68 148 0 2 18 40 40 85 22 45 40 87
40 92 0 6 6 18 13 26 8 9 20 32 27 51 8 19 40 88 71 153 32 65 58 120 59 122
3 10 71 157 124 268 31 65 56 119 56 121 0 2 31 68 68 147 38 79 77 162 87
184 55 121 110 225 149 279 77 107 107 130 229 180 20 8 37 19 37 23 0 5 -470
9 -1045 9 -749 0 -1045 -3 -1045 -11z"/>
</g>
</svg>
